<svg width="25" height="25" fill="none" xmlns="http://www.w3.org/2000/svg"><path d="M17.968 25a6.967 6.967 0 01-2.39-.427 25.482 25.482 0 01-9.253-5.898A25.48 25.48 0 01.427 9.422a6.915 6.915 0 01-.352-3.399 7.078 7.078 0 011.204-3.018A7.107 7.107 0 013.719.833 6.961 6.961 0 017.052 0c.368 0 .687.257.764.618L9.042 6.34a.781.781 0 01-.211.716L6.735 9.151a20.564 20.564 0 009.114 9.114l2.095-2.095a.782.782 0 01.716-.212l5.723 1.226c.36.078.617.396.617.764a6.96 6.96 0 01-.832 3.334 7.107 7.107 0 01-2.173 2.44 7.077 7.077 0 01-3.018 1.204c-.337.05-.674.074-1.01.074zM6.428 1.597a5.411 5.411 0 00-3.87 2.305 5.382 5.382 0 00-.662 4.987 23.695 23.695 0 0014.216 14.216 5.382 5.382 0 004.986-.663 5.411 5.411 0 002.306-3.87l-4.655-.997-2.188 2.188a.781.781 0 01-.885.155A22.12 22.12 0 015.082 9.325a.781.781 0 01.155-.885l2.188-2.188-.997-4.655zM24.219 13.28a.781.781 0 01-.782-.78c0-6.031-4.906-10.938-10.937-10.938A.781.781 0 1112.5 0c3.34 0 6.478 1.3 8.839 3.661A12.42 12.42 0 0125 12.499c0 .432-.35.782-.781.782z" fill="#fff"/><path d="M21.094 13.28a.781.781 0 01-.781-.78c0-4.308-3.505-7.813-7.812-7.813a.781.781 0 110-1.562c5.169 0 9.374 4.205 9.374 9.375 0 .43-.35.78-.781.78z" fill="#fff"/><path d="M17.969 13.28a.781.781 0 01-.781-.78A4.693 4.693 0 0012.5 7.811a.781.781 0 110-1.562 6.257 6.257 0 016.25 6.25c0 .43-.35.78-.782.78z" fill="#fff"/></svg>